<?xml version="1.0" standalone="no"?>
<svg xmlns:xlink="http://www.w3.org/1999/xlink" id="wave" style="transform:rotate(0deg); transition: 0.3s" viewBox="0 0 1440 110" version="1.1" xmlns="http://www.w3.org/2000/svg"><defs><linearGradient id="sw-gradient-0" x1="0" x2="0" y1="1" y2="0"><stop stop-color="rgba(255, 255, 255, 1)" offset="0%"/><stop stop-color="rgba(239.383, 239.383, 239.383, 1)" offset="100%"/></linearGradient></defs><path style="transform:translate(0, 0px); opacity:1" fill="url(#sw-gradient-0)" d="M0,88L120,82.5C240,77,480,66,720,67.8C960,70,1200,84,1440,75.2C1680,66,1920,33,2160,18.3C2400,4,2640,7,2880,11C3120,15,3360,18,3600,20.2C3840,22,4080,22,4320,29.3C4560,37,4800,51,5040,49.5C5280,48,5520,29,5760,27.5C6000,26,6240,40,6480,44C6720,48,6960,40,7200,45.8C7440,51,7680,70,7920,64.2C8160,59,8400,29,8640,18.3C8880,7,9120,15,9360,25.7C9600,37,9840,51,10080,47.7C10320,44,10560,22,10800,22C11040,22,11280,44,11520,51.3C11760,59,12000,51,12240,51.3C12480,51,12720,59,12960,67.8C13200,77,13440,88,13680,78.8C13920,70,14160,40,14400,33C14640,26,14880,40,15120,55C15360,70,15600,84,15840,80.7C16080,77,16320,55,16560,40.3C16800,26,17040,18,17160,14.7L17280,11L17280,110L17160,110C17040,110,16800,110,16560,110C16320,110,16080,110,15840,110C15600,110,15360,110,15120,110C14880,110,14640,110,14400,110C14160,110,13920,110,13680,110C13440,110,13200,110,12960,110C12720,110,12480,110,12240,110C12000,110,11760,110,11520,110C11280,110,11040,110,10800,110C10560,110,10320,110,10080,110C9840,110,9600,110,9360,110C9120,110,8880,110,8640,110C8400,110,8160,110,7920,110C7680,110,7440,110,7200,110C6960,110,6720,110,6480,110C6240,110,6000,110,5760,110C5520,110,5280,110,5040,110C4800,110,4560,110,4320,110C4080,110,3840,110,3600,110C3360,110,3120,110,2880,110C2640,110,2400,110,2160,110C1920,110,1680,110,1440,110C1200,110,960,110,720,110C480,110,240,110,120,110L0,110Z"/></svg>