<svg width="25" height="25" viewBox="0 0 25 25" fill="none" xmlns="http://www.w3.org/2000/svg">
<g id="facebook black.1">
<path id="Facebook" d="M13.133 21.2666H4.73962C4.20526 21.2666 3.77237 20.8217 3.77237 20.2731V4.26006C3.77237 3.7113 4.20533 3.2666 4.73962 3.2666H20.3302C20.8643 3.2666 21.2974 3.7113 21.2974 4.26006V20.2731C21.2974 20.8218 20.8643 21.2666 20.3302 21.2666H15.8644V14.296H18.1423L18.4834 11.5794H15.8644V9.84509C15.8644 9.05858 16.077 8.52261 17.1751 8.52261L18.5756 8.52198V6.09226C18.3334 6.05915 17.502 5.98519 16.5348 5.98519C14.5155 5.98519 13.133 7.25117 13.133 9.57606V11.5794H10.8492V14.296H13.133V21.2666Z" fill="white"/>
</g>
</svg>
