<svg width="25" height="25" viewBox="0 0 25 25" fill="none" xmlns="http://www.w3.org/2000/svg">
<g id="googleplus black.1">
<path id="GooglePlus" fill-rule="evenodd" clip-rule="evenodd" d="M11.9939 13.8529C11.0982 13.8529 8.89843 13.8557 8.89843 13.8557V11.6775H14.3974C14.7804 14.3131 13.6251 18.2666 8.89843 18.2666C5.73618 18.2666 3.17271 15.8041 3.17271 12.7666C3.17271 9.72902 5.73618 7.2666 8.89843 7.2666C10.3822 7.2666 11.7342 7.80876 12.7514 8.69813C11.9631 9.41316 11.7104 9.68574 11.4957 9.91734C11.384 10.0378 11.2826 10.1472 11.1215 10.302C10.5331 9.83461 9.89164 9.49927 8.89843 9.49927C7.01988 9.49927 5.5537 10.9621 5.5537 12.7666C5.5537 14.5711 7.01988 16.0339 8.89843 16.0339C10.7547 16.0339 11.5089 15.265 11.9939 13.8529ZM19.2161 9.88037V11.7863H21.2002V13.1477H19.2161V15.1081H17.7988V13.1477H15.758V11.7863H17.7988V9.88037H19.2161Z" fill="white"/>
</g>
</svg>
