<svg width="25" height="25" viewBox="0 0 25 25" fill="none" xmlns="http://www.w3.org/2000/svg">
<g id="instagram black.1">
<path id="Instagram" fill-rule="evenodd" clip-rule="evenodd" d="M12.1131 3.2666C9.66511 3.2666 9.35815 3.27696 8.39674 3.32076C7.43733 3.36445 6.78209 3.51661 6.20875 3.73911C5.61602 3.96907 5.11334 4.27681 4.6122 4.77715C4.1111 5.27752 3.80289 5.77943 3.57257 6.37126C3.34974 6.94373 3.19735 7.59797 3.15359 8.55591C3.10972 9.51586 3.09935 9.82235 3.09935 12.2666C3.09935 14.7109 3.10972 15.0173 3.15359 15.9773C3.19735 16.9352 3.34974 17.5895 3.57257 18.1619C3.80289 18.7538 4.1111 19.2557 4.6122 19.7561C5.11334 20.2564 5.61602 20.5641 6.20875 20.7941C6.78209 21.0166 7.43733 21.1687 8.39674 21.2124C9.35815 21.2562 9.66511 21.2666 12.1131 21.2666C14.5611 21.2666 14.868 21.2562 15.8295 21.2124C16.7889 21.1687 17.4441 21.0166 18.0175 20.7941C18.6102 20.5641 19.1129 20.2564 19.614 19.7561C20.1151 19.2557 20.4233 18.7538 20.6537 18.1619C20.8765 17.5895 21.0289 16.9352 21.0726 15.9773C21.1165 15.0173 21.1269 14.7109 21.1269 12.2666C21.1269 9.82235 21.1165 9.51586 21.0726 8.55591C21.0289 7.59797 20.8765 6.94373 20.6537 6.37126C20.4233 5.77943 20.1151 5.27752 19.614 4.77715C19.1129 4.27681 18.6102 3.96907 18.0175 3.73911C17.4441 3.51661 16.7889 3.36445 15.8295 3.32076C14.868 3.27696 14.5611 3.2666 12.1131 3.2666ZM12.1131 4.88818C14.5199 4.88818 14.805 4.89737 15.7554 4.94066C16.6343 4.98068 17.1115 5.12729 17.4292 5.25055C17.8499 5.41381 18.1502 5.60884 18.4656 5.9238C18.781 6.23872 18.9763 6.53853 19.1398 6.95862C19.2633 7.27576 19.4101 7.7523 19.4502 8.62979C19.4936 9.57881 19.5028 9.86347 19.5028 12.2666C19.5028 14.6697 19.4936 14.9543 19.4502 15.9033C19.4101 16.7808 19.2633 17.2574 19.1398 17.5745C18.9763 17.9946 18.781 18.2944 18.4656 18.6093C18.1502 18.9243 17.8499 19.1193 17.4292 19.2826C17.1115 19.4058 16.6343 19.5525 15.7554 19.5925C14.8051 19.6358 14.5201 19.6449 12.1131 19.6449C9.70615 19.6449 9.42113 19.6358 8.47077 19.5925C7.59194 19.5525 7.11467 19.4058 6.79705 19.2826C6.37631 19.1193 6.07604 18.9243 5.76064 18.6093C5.44524 18.2944 5.24988 17.9946 5.08636 17.5745C4.96292 17.2574 4.81608 16.7808 4.776 15.9033C4.73264 14.9543 4.72344 14.6697 4.72344 12.2666C4.72344 9.86347 4.73264 9.57881 4.776 8.62979C4.81608 7.7523 4.96292 7.27576 5.08636 6.95862C5.24988 6.53853 5.4452 6.23872 5.76064 5.9238C6.07604 5.60884 6.37631 5.41381 6.79705 5.25055C7.11467 5.12729 7.59194 4.98068 8.47077 4.94066C9.42123 4.89737 9.70633 4.88818 12.1131 4.88818ZM7.48442 12.2667C7.48442 9.71417 9.55674 7.64502 12.1131 7.64502C14.6695 7.64502 16.7418 9.71417 16.7418 12.2667C16.7418 14.8191 14.6695 16.8883 12.1131 16.8883C9.55674 16.8883 7.48442 14.8191 7.48442 12.2667ZM12.1131 15.2666C10.4537 15.2666 9.10852 13.9235 9.10852 12.2666C9.10852 10.6097 10.4537 9.2666 12.1131 9.2666C13.7725 9.2666 15.1177 10.6097 15.1177 12.2666C15.1177 13.9235 13.7725 15.2666 12.1131 15.2666ZM16.9247 8.54233C17.522 8.54233 18.0063 8.05882 18.0063 7.46234C18.0063 6.86587 17.522 6.38232 16.9247 6.38232C16.3273 6.38232 15.843 6.86587 15.843 7.46234C15.843 8.05882 16.3273 8.54233 16.9247 8.54233Z" fill="white"/>
</g>
</svg>
