<svg width="25" height="25" viewBox="0 0 25 25" fill="none" xmlns="http://www.w3.org/2000/svg">
<g id="linkedin black.1">
<path id="LinkedIn" fill-rule="evenodd" clip-rule="evenodd" d="M6.07463 8.03788H6.04919C4.77726 8.03788 3.95262 7.20699 3.95262 6.15378C3.95262 5.08007 4.80164 4.2666 6.09901 4.2666C7.39532 4.2666 8.19239 5.07803 8.21783 6.1507C8.21783 7.20391 7.39532 8.03788 6.07463 8.03788ZM21.9801 20.2667H17.9958V14.642C17.9958 13.1698 17.3726 12.1647 16.0021 12.1647C14.9538 12.1647 14.3708 12.8429 14.0995 13.4966C14.0099 13.7032 14.0115 13.9812 14.0131 14.2678V14.2678C14.0134 14.3067 14.0136 14.3458 14.0136 14.3849V20.2667H10.0664C10.0664 20.2667 10.1172 10.3032 10.0664 9.39747H14.0136V11.1033C14.2468 10.3574 15.5081 9.29297 17.5209 9.29297C20.0182 9.29297 21.9801 10.8564 21.9801 14.223V20.2667ZM7.92105 9.39746H4.40734V20.2666H7.92105V9.39746Z" fill="white"/>
</g>
</svg>
