<svg width="24" height="25" viewBox="0 0 24 25" fill="none" xmlns="http://www.w3.org/2000/svg">
<g id="pinterest color.1">
<path id="Pinterest" d="M11.9354 3.2666C7.09636 3.2666 3.17237 7.29588 3.17237 12.2671C3.17237 15.9514 5.33015 19.1181 8.41843 20.5099C8.3937 19.8822 8.41431 19.1265 8.56991 18.4428C8.73891 17.7125 9.69723 13.5393 9.69723 13.5393C9.69723 13.5393 9.41798 12.9646 9.41798 12.1147C9.41798 10.7812 10.1712 9.78521 11.1079 9.78521C11.9045 9.78521 12.2899 10.4001 12.2899 11.1368C12.2899 11.9591 11.7788 13.19 11.516 14.3299C11.2965 15.2857 11.9818 16.0636 12.8989 16.0636C14.5589 16.0636 15.677 13.8738 15.677 11.2786C15.677 9.30682 14.3838 7.83037 12.0312 7.83037C9.37367 7.83037 7.71772 9.86565 7.71772 12.1391C7.71772 12.9244 7.94236 13.4769 8.29478 13.9045C8.45759 14.1024 8.47923 14.1807 8.42049 14.4072C8.37928 14.5712 8.28241 14.9713 8.24222 15.129C8.18349 15.3566 8.00419 15.4391 7.80428 15.3544C6.57907 14.8411 6.00922 13.4642 6.00922 11.9157C6.00922 9.35974 8.10826 6.29253 12.2713 6.29253C15.6172 6.29253 17.8193 8.7808 17.8193 11.449C17.8193 14.9798 15.9088 17.6173 13.0905 17.6173C12.1456 17.6173 11.2553 17.0923 10.9503 16.4964C10.9503 16.4964 10.4412 18.5698 10.3341 18.9699C10.1486 19.6631 9.78482 20.3574 9.45198 20.8972C10.2403 21.1364 11.0729 21.2666 11.9354 21.2666C16.7744 21.2666 20.6974 17.2373 20.6974 12.2671C20.6974 7.29588 16.7744 3.2666 11.9354 3.2666Z" fill="white"/>
</g>
</svg>
