<svg width="25" height="25" viewBox="0 0 25 25" fill="none" xmlns="http://www.w3.org/2000/svg">
<g id="rss black.1">
<path id="RSS" fill-rule="evenodd" clip-rule="evenodd" d="M21.4307 21.2666H18.0928C18.0928 13.2315 11.7288 6.69496 3.90589 6.69496V3.2666C13.5689 3.2666 21.4307 11.3415 21.4307 21.2666ZM3.90589 18.6952C3.90589 17.2751 5.02686 16.1238 6.40944 16.1238C7.79202 16.1238 8.91298 17.2751 8.91298 18.6952C8.91298 20.1153 7.79202 21.2666 6.40944 21.2666C5.02686 21.2666 3.90589 20.1153 3.90589 18.6952ZM12.2513 21.2666H15.5891C15.5891 14.6496 10.3479 9.26636 3.9057 9.26636V12.6954C8.50722 12.6954 12.2513 16.5403 12.2513 21.2666Z" fill="white"/>
</g>
</svg>
