<svg width="25" height="25" viewBox="0 0 25 25" fill="none" xmlns="http://www.w3.org/2000/svg">
<g id="twitter black.1">
<path id="Twitter" d="M21.9068 7.04233C21.2444 7.34352 20.5312 7.54721 19.7831 7.63822C20.5471 7.17018 21.1333 6.42803 21.4094 5.54396C20.6941 5.97733 19.9037 6.2926 19.0593 6.46162C18.3863 5.72597 17.4245 5.2666 16.36 5.2666C14.3189 5.2666 12.6629 6.96216 12.6629 9.05317C12.6629 9.35003 12.6946 9.63822 12.7581 9.91557C9.68421 9.75739 6.9595 8.25143 5.13421 5.95783C4.81571 6.51904 4.63371 7.17018 4.63371 7.86357C4.63371 9.17668 5.28658 10.3359 6.27912 11.0152C5.67386 10.9968 5.10247 10.8246 4.60302 10.5429V10.5895C4.60302 12.4248 5.87808 13.9557 7.5711 14.3024C7.26107 14.3912 6.9341 14.4356 6.59656 14.4356C6.35848 14.4356 6.12569 14.4129 5.9003 14.3684C6.37117 15.8722 7.73617 16.9676 9.35513 16.9968C8.08959 18.0131 6.49392 18.6187 4.76174 18.6187C4.46335 18.6187 4.16813 18.6014 3.87926 18.5667C5.5162 19.6393 7.46106 20.2666 9.54876 20.2666C16.3526 20.2666 20.072 14.4974 20.072 9.49304C20.072 9.32836 20.0688 9.16368 20.0624 9.00225C20.7851 8.46812 21.4126 7.80181 21.9068 7.04233Z" fill="white"/>
</g>
</svg>
