<svg width="25" height="25" viewBox="0 0 25 25" fill="none" xmlns="http://www.w3.org/2000/svg">
<g id="youtube color.1">
<path id="Youtube" fill-rule="evenodd" clip-rule="evenodd" d="M20.1566 7.23639C20.6969 7.79724 20.8732 9.07084 20.8732 9.07084C20.8732 9.07084 21.0535 10.5668 21.0535 12.0622V13.4646C21.0535 14.9606 20.8732 16.456 20.8732 16.456C20.8732 16.456 20.6969 17.7296 20.1566 18.2905C19.5389 18.9539 18.8541 19.0225 18.4669 19.0612C18.4244 19.0655 18.3854 19.0694 18.3505 19.0737C15.8278 19.2608 12.0397 19.2666 12.0397 19.2666C12.0397 19.2666 7.35259 19.2227 5.91039 19.0806C5.84206 19.0675 5.75922 19.0573 5.66542 19.0458C5.20859 18.9896 4.49157 18.9014 3.92229 18.2905C3.38203 17.7296 3.20626 16.456 3.20626 16.456C3.20626 16.456 3.02598 14.9606 3.02598 13.4646V12.0622C3.02598 10.5668 3.20626 9.07084 3.20626 9.07084C3.20626 9.07084 3.38203 7.79724 3.92229 7.23639C4.54134 6.57199 5.22689 6.50418 5.61404 6.46588C5.65602 6.46173 5.69449 6.45792 5.72898 6.45374C8.25171 6.2666 12.0358 6.2666 12.0358 6.2666H12.0437C12.0437 6.2666 15.8278 6.2666 18.3505 6.45374C18.385 6.45793 18.4235 6.46174 18.4655 6.4659C18.8524 6.5042 19.5382 6.57209 20.1566 7.23639ZM10.1778 9.9707L10.1784 15.1639L15.0486 12.5762L10.1778 9.9707Z" fill="white"/>
</g>
</svg>
